<?xml version="1.0" encoding="UTF-8" standalone="no"?>
<!-- Created with Inkscape (http://www.inkscape.org/) -->

<svg
   xmlns:dc="http://purl.org/dc/elements/1.1/"
   xmlns:cc="http://creativecommons.org/ns#"
   xmlns:rdf="http://www.w3.org/1999/02/22-rdf-syntax-ns#"
   xmlns:svg="http://www.w3.org/2000/svg"
   xmlns="http://www.w3.org/2000/svg"
   xmlns:sodipodi="http://sodipodi.sourceforge.net/DTD/sodipodi-0.dtd"
   xmlns:inkscape="http://www.inkscape.org/namespaces/inkscape"
   width="512"
   height="512"
   id="svg2"
   version="1.1"
   inkscape:version="0.48.5 r10040"
   sodipodi:docname="touch3.svg"
   inkscape:export-filename="/Users/tkgktyk/OneDrive/AndroidStudio/ForceTouch/art/touch3.png"
   inkscape:export-xdpi="45"
   inkscape:export-ydpi="45">
  <defs
     id="defs4" />
  <sodipodi:namedview
     id="base"
     pagecolor="#ffffff"
     bordercolor="#666666"
     borderopacity="1.0"
     inkscape:pageopacity="0.0"
     inkscape:pageshadow="2"
     inkscape:zoom="0.70710678"
     inkscape:cx="478.64284"
     inkscape:cy="189.36778"
     inkscape:document-units="px"
     inkscape:current-layer="layer1"
     showgrid="true"
     inkscape:window-width="1280"
     inkscape:window-height="751"
     inkscape:window-x="0"
     inkscape:window-y="0"
     inkscape:window-maximized="1">
    <inkscape:grid
       type="xygrid"
       id="grid2985"
       empspacing="5"
       visible="true"
       enabled="true"
       snapvisiblegridlinesonly="true"
       spacingx="8px"
       spacingy="8px" />
  </sodipodi:namedview>
  <metadata
     id="metadata7">
    <rdf:RDF>
      <cc:Work
         rdf:about="">
        <dc:format>image/svg+xml</dc:format>
        <dc:type
           rdf:resource="http://purl.org/dc/dcmitype/StillImage" />
        <dc:title></dc:title>
      </cc:Work>
    </rdf:RDF>
  </metadata>
  <g
     inkscape:label="Layer 1"
     inkscape:groupmode="layer"
     id="layer1"
     transform="translate(0,-540.36218)">
    <rect
       style="fill:#000000;fill-opacity:1;stroke:none"
       id="rect2987"
       width="272"
       height="432"
       x="160"
       y="540.36218"
       ry="32"
       rx="32" />
    <path
       style="fill:#ffffff;fill-opacity:1;stroke:#000000;stroke-width:16;stroke-linecap:butt;stroke-linejoin:miter;stroke-miterlimit:4;stroke-opacity:1;stroke-dasharray:none"
       d="m 88,892.36216 -40,152.00004 160,0 16,-24 72,-56.00004 c 0,0 -57.42928,6.03539 -72,0 -14.57072,-6.03539 -13.21378,-14.79775 -16,-24 -2.31827,-7.65674 -3.06147,-16.60896 0,-24 7.21595,-17.42084 22.99342,-25.62965 40,-40 17.00658,-14.37035 51.89803,-39.42088 64,-56 12.10197,-16.57912 12.80582,-27.42145 8,-40 -4.80582,-12.57855 -17.09556,-21.58134 -32,-24 -14.90444,-2.41866 -48,16 -48,16 l -72,48 0,-80 -56,64 z"
       id="path3757"
       inkscape:connector-curvature="0"
       sodipodi:nodetypes="ccccczaazzzzccccc" />
    <path
       sodipodi:type="arc"
       style="fill:#1976d2;fill-opacity:1;fill-rule:nonzero;stroke:none"
       id="path3793"
       sodipodi:cx="240"
       sodipodi:cy="288"
       sodipodi:rx="32"
       sodipodi:ry="32"
       d="m 271.99999,288.02006 c -0.0111,17.67311 -14.34694,31.99101 -32.02005,31.97993 -17.67311,-0.0111 -31.99101,-14.34694 -31.97993,-32.02005 0.0111,-17.67311 14.34694,-31.99101 32.02005,-31.97993 17.66702,0.0111 31.98241,14.33743 31.97994,32.00446"
       transform="translate(8,532.36218)"
       sodipodi:start="0.00062683775"
       sodipodi:end="6.2833249"
       sodipodi:open="true" />
  </g>
</svg>
